<svg data-v-0dd9719b="" version="1.0" xmlns="http://www.w3.org/2000/svg" xmlns:xlink="http://www.w3.org/1999/xlink" width="100%" height="100%" viewBox="0 0 340.000000 250.000000" preserveAspectRatio="xMidYMid meet" color-interpolation-filters="sRGB" style="margin: auto;"> <rect data-v-0dd9719b="" x="0" y="0" width="100%" height="100%" fill="#fff" fill-opacity="1" class="background"></rect> <rect data-v-0dd9719b="" x="0" y="0" width="100%" height="100%" fill="url(#watermark)" fill-opacity="1" class="watermarklayer"></rect> <g data-v-0dd9719b="" fill="#133359" class="icon-text-wrapper icon-svg-group iconsvg" transform="translate(53.05500030517578,95)"><g class="iconsvg-imagesvg" transform="translate(0,0)"><g><rect fill="#133359" fill-opacity="0" stroke-width="2" x="0" y="0" width="60" height="60" class="image-rect"></rect> <svg x="0" y="0" width="60" height="60" filtersec="colorsb6253885988" class="image-svg-svg primary" style="overflow: visible;"><svg xmlns="http://www.w3.org/2000/svg" viewBox="0 0 194.82000732421875 194.82000732421875"><g><g fill-rule="evenodd"><path fill="#133359" d="M194.82 15.46v179.36H72.15l97.94-97.94-14.51-14.52L43.12 194.82H15.46L194.82 15.46z"></path><path fill="#fe7c30" d="M0 0h122.68L24.73 97.94l14.51 14.51L151.7 0h29.55L0 181.25V0z"></path></g></g></svg></svg> <!----></g></g> <g transform="translate(67,2.208749771118164)"><g data-gra="path-name" fill-rule="" class="tp-name iconsvg-namesvg" transform="translate(0,0)"><g transform="scale(1)"><g><path d="M39.8-12.82L28.51-12.82 28.43-12.49Q29.59-9.3 32.95-6.83 36.32-4.36 41.71-3.03L41.71-3.03 41.71-2.45Q39.39-1.91 38.18-0.46 36.98 1 36.81 3.69L36.81 3.69Q30.13-0.17 27.97-10.83L27.97-10.83Q24.49 0.25 11.41 4.23L11.41 4.23 11.16 3.86Q20.67-1.83 22.79-12.82L22.79-12.82 16.44-12.82Q16.64-11.66 16.64-10.75L16.64-10.75Q16.64-7.47 15.25-5.79 13.86-4.11 10.5-4.07L10.5-4.07Q10.5-7.1 9.96-8.18L9.96-8.18Q9.46-8.96 8.26-9.26L8.26-9.26 8.26-9.79 10.29-9.79Q10.83-9.79 11.08-10L11.08-10Q11.83-10.54 11.83-12.24L11.83-12.24Q11.83-17.35 9.46-20.92L9.46-20.92Q10.63-26.19 11.21-31.83L11.21-31.83 8.22-31.83 8.22 2.32Q8.22 2.53 7.72 2.93 7.22 3.32 6.12 3.69 5.02 4.07 3.74 4.07L3.74 4.07 2.74 4.07 2.74-35.28 8.76-33.04 10.83-33.04 13.53-35.61 18.47-31.04Q17.97-30.42 16.56-30.42L16.56-30.42Q12.91-23.86 10.54-21.04L10.54-21.04Q14.69-18.43 16.15-14.03L16.15-14.03 22.99-14.03Q23.49-17.31 23.49-21.62L23.49-21.62 23.49-27.48 16.06-27.48 15.73-28.64 23.49-28.64 23.49-36.4 31.04-35.65Q30.84-34.66 29.47-34.45L29.47-34.45 29.47-28.64 32.29-28.64 35.2-32.41Q38.43-29.88 40.34-28.14L40.34-28.14Q40.22-27.48 39.14-27.48L39.14-27.48 29.47-27.48 29.47-21.62Q29.47-17.81 28.76-14.03L28.76-14.03 32.79-14.03 35.69-17.89Q39.06-15.31 41.01-13.53L41.01-13.53Q40.8-12.82 39.8-12.82L39.8-12.82ZM15.36-25.61L15.36-25.61 15.77-25.82Q21.04-23.66 22.08-20.3L22.08-20.3Q22.79-17.97 21.29-16.52L21.29-16.52Q19.88-15.11 17.97-16.06L17.97-16.06Q17.31-16.39 16.73-17.02L16.73-17.02Q16.93-20.83 15.36-25.61ZM30.67-15.36L30.67-15.36 30.38-15.52Q31.92-21.83 32.37-26.02L32.37-26.02 39.64-23.03Q39.39-22.16 37.98-22.33L37.98-22.33Q34.7-18.43 30.67-15.36ZM61.76-30.67L61.76-23.86 64.33-23.86 64.33-30.67 61.76-30.67ZM75.16-14.07L75.16-22.7 70.02-22.7 70.02-15.4Q70.02-14.69 70.43-14.69L70.43-14.69 71.22-14.69Q71.76-14.69 72.01-15.02L72.01-15.02Q72.55-15.69 73.59-18.72L73.59-18.72 74-18.72 74.17-14.86Q74.87-14.48 75.16-14.07L75.16-14.07ZM52.17-6.14L52.17-1.87 75.16-1.87 75.16-10.92Q74.13-9.26 70.02-9.26L70.02-9.26 68.32-9.26Q65.74-9.26 65.04-10.19 64.33-11.12 64.33-13.82L64.33-13.82 64.33-22.7 61.76-22.7Q61.76-20.79 61.59-19.26 61.43-17.72 60.84-15.73 60.26-13.74 59.29-12.16 58.31-10.58 56.51-8.94 54.7-7.3 52.21-6.1L52.21-6.1 52.17-6.14ZM56.03-22.7L56.03-22.7 52.17-22.7 52.17-6.85Q54.54-10 55.28-13.86 56.03-17.72 56.03-22.7ZM82.55-30.67L70.02-30.67 70.02-23.86 74.96-23.86 77.94-27.31 83.26-23.12Q82.76-22.41 81.47-22.16L81.47-22.16 81.47 2.08Q81.47 2.24 80.87 2.61 80.27 2.99 79 3.32 77.74 3.65 76.28 3.65L76.28 3.65 75.16 3.65 75.16-0.66 52.17-0.66 52.17 2.32Q52.17 2.53 51.63 2.86 51.09 3.2 49.91 3.51 48.73 3.82 47.31 3.82L47.31 3.82 46.19 3.82 46.19-26.27 52.71-23.86 56.03-23.86 56.03-30.67 44.28-30.67 43.95-31.88 74.25-31.88 77.65-36.07Q81.47-33.29 83.8-31.38L83.8-31.38Q83.59-30.67 82.55-30.67L82.55-30.67ZM114.09-27.97L117.37-31.38 122.93-26.31Q122.56-25.65 121.07-25.44L121.07-25.44Q119.86-20 117.95-15.65L117.95-15.65Q120.73-6.89 127.21-4.23L127.21-4.23 127.17-3.74Q123.52-1.08 123.1 4.03L123.1 4.03Q118.41-0.08 116.75-13.24L116.75-13.24Q110.15-0.75 95 4.03L95 4.03 94.63 3.65Q100.27 0.46 104.44-4.4 108.62-9.26 111-14.78 113.39-20.3 114.51-26.77L114.51-26.77 110.86-26.77Q106.71-17.89 100.19-13.49L100.19-13.49 99.82-13.82Q101.44-16.19 102.51-18.8L102.51-18.8 97.45-18.8 97.45-9.3Q103.05-10.63 104.47-11L104.47-11 104.55-10.63Q98.7-6.18 89.61-1.16L89.61-1.16Q89.27-0.21 88.36 0.08L88.36 0.08 85.62-6.81Q86.62-6.97 91.52-8.01L91.52-8.01 91.52-18.8 86.83-18.8 86.49-19.96 91.52-19.96 91.52-30.84 86.54-30.84 86.2-32.04 95.83-32.04 98.82-36.27Q102.22-33.45 104.17-31.54L104.17-31.54Q103.97-30.84 102.93-30.84L102.93-30.84 97.45-30.84 97.45-20.88 99.28-23.74Q101.48-21.62 102.97-19.92L102.97-19.92Q105.92-27.39 106.71-36.27L106.71-36.27 114.84-33.83Q114.55-33 113.22-32.95L113.22-32.95Q112.6-30.96 111.35-27.97L111.35-27.97 114.09-27.97ZM154.56-32.37L154.56-32.37 142.52-32.37 142.15-33.58 153.48-33.58 154.98-36.11 159.17-33.45Q158.46-32.62 155.52-32.41L155.52-32.41Q157.22-30.71 160.79-29.49 164.36-28.26 168.51-27.97L168.51-27.97 168.55-27.39Q166.93-26.77 165.7-25.3 164.48-23.82 164.15-22.08L164.15-22.08Q160.79-23.74 158.23-26.46 155.68-29.18 154.56-32.37ZM141.28-24.53L140.95-25.73 149.54-25.73 152.24-29.01Q155.31-26.77 157.18-25.19L157.18-25.19Q157.01-24.53 155.97-24.53L155.97-24.53 141.28-24.53ZM139.16-33.54L139.16-33.54 145.72-30.05Q145.51-29.55 144.35-29.72L144.35-29.72Q142.15-27.19 137.94-24.92 133.73-22.66 129.37-21.71L129.37-21.71 129.12-22.25Q132.19-24.16 135.03-27.39 137.88-30.63 139.16-33.54ZM142.81-9.21L141.15-9.21 141.15 1.37 142.81 1.37 142.81-9.21ZM149.5 1.37L149.5-9.21 147.75-9.21 147.75 1.37 149.5 1.37ZM156.22 1.37L156.22-9.21 154.52-9.21 154.52 1.37 156.22 1.37ZM162.2-8.51L162.2 0.83 164.69-2.95Q167.88 0 169.63 1.87L169.63 1.87Q169.5 2.53 168.42 2.53L168.42 2.53 128.91 2.53 128.58 1.37 135.3 1.37 135.3-9.92Q131.77-8.3 128.5-7.64L128.5-7.64 128.21-8.13Q131.32-10.09 134.08-13.43 136.84-16.77 138.04-19.71L138.04-19.71 145.01-16.15Q144.77-15.61 143.65-15.77L143.65-15.77Q141.82-13.65 138.5-11.62L138.5-11.62 141.74-10.42 155.81-10.42 158.38-13.03Q156.18-15.65 155.18-18.8L155.18-18.8 142.52-18.8 142.15-19.96 154.06-19.96 155.56-22.58 159.79-19.84Q159.17-19.01 156.1-18.8L156.1-18.8Q157.8-16.93 161.47-15.56 165.14-14.19 169.38-13.78L169.38-13.78 169.42-13.2Q167.8-12.58 166.51-11.08 165.23-9.59 164.85-7.84L164.85-7.84Q164.4-8.05 163.15-8.84L163.15-8.84Q162.74-8.63 162.2-8.51L162.2-8.51Z" transform="translate(-2.740000009536743, 36.400001525878906)"></path></g> <!----> <!----> <!----> <!----> <!----> <!----> <!----></g></g> <g data-gra="path-slogan" fill-rule="" class="tp-slogan iconsvg-slogansvg" fill="#133359" transform="translate(41.749176025390625,47.630001068115234)"><!----> <!----> <g transform="scale(1, 1)"><g transform="scale(1)"><path d="M7.17-6.09L7.17-6.09L6.09-6.09Q6-7.73 3.94-7.83L3.94-7.83Q2.02-7.78 2.02-6.33L2.02-6.33Q2.02-5.39 3.05-5.25L3.05-5.25L5.48-4.69Q7.41-4.22 7.41-2.34L7.41-2.34Q7.36 0.05 4.03 0.14L4.03 0.14Q2.20 0.14 1.45-0.61L1.45-0.61Q0.52-1.31 0.56-2.77L0.56-2.77L1.69-2.77Q1.73-0.80 4.03-0.75L4.03-0.75Q6.28-0.80 6.33-2.20L6.33-2.20Q6.52-3.38 4.45-3.75L4.45-3.75L2.67-4.13Q0.84-4.64 0.84-6.19L0.84-6.19Q0.98-8.72 3.84-8.81L3.84-8.81Q7.08-8.81 7.17-6.09ZM10.03-5.06L14.53-5.06L14.53-8.58L15.70-8.58L15.70 0L14.53 0L14.53-3.98L10.03-3.98L10.03 0L8.86 0L8.86-8.58L10.03-8.58L10.03-5.06ZM23.16 0L22.31-2.48L18.84-2.48L17.95 0L16.78 0L20.02-8.58L21.33-8.58L24.42 0L23.16 0ZM20.58-7.31L19.22-3.52L21.89-3.52L20.63-7.31L20.58-7.31ZM31.13 0L30.28-2.48L26.81-2.48L25.92 0L24.75 0L27.98-8.58L29.30-8.58L32.39 0L31.13 0ZM28.55-7.31L27.19-3.52L29.86-3.52L28.59-7.31L28.55-7.31ZM34.83-8.58L39.14-1.64L39.14-8.58L40.27-8.58L40.27 0L38.95 0L34.59-6.94L34.55-6.94L34.55 0L33.42 0L33.42-8.58L34.83-8.58ZM48.80-8.58L45.89-4.41L48.94 0L47.48 0L45.14-3.52L42.80 0L41.39 0L44.48-4.41L41.58-8.58L43.03-8.58L45.19-5.30L47.39-8.58L48.80-8.58ZM50.20-8.58L51.38-8.58L51.38 0L50.20 0L50.20-8.58ZM55.97-1.92L55.97-2.77L57.05-2.77L57.05-2.16Q57.05-0.75 58.36-0.75L58.36-0.75Q59.72-0.75 59.72-2.25L59.72-2.25L59.72-8.58L60.89-8.58L60.89-2.30Q60.84 0.09 58.41 0.14L58.41 0.14Q56.11 0.09 55.97-1.92L55.97-1.92ZM62.86-8.58L64.03-8.58L64.03 0L62.86 0L62.86-8.58ZM71.67-3.19L71.67-8.58L72.84-8.58L72.84-3.05Q72.70 0.05 69.33 0.14L69.33 0.14Q66.19 0.05 66.05-2.86L66.05-2.86L66.05-8.58L67.22-8.58L67.22-3.19Q67.27-0.84 69.38-0.80L69.38-0.80Q71.67-0.84 71.67-3.19L71.67-3.19ZM81.56-8.58L78.33-3.47L78.33 0L77.16 0L77.16-3.47L73.92-8.58L75.28-8.58L77.72-4.45L80.20-8.58L81.56-8.58ZM82.78-8.58L83.95-8.58L83.95 0L82.78 0L82.78-8.58Z" transform="translate(-0.5602678571428572, 8.8125)"></path></g></g></g></g></g><defs v-gra="od"></defs></svg>